<?xml version="1.0" encoding="utf-8"?>
<!-- Generator: Adobe Illustrator 19.2.1, SVG Export Plug-In . SVG Version: 6.00 Build 0)  -->
<svg version="1.1" id="BBB_logo_artwork" xmlns="http://www.w3.org/2000/svg" xmlns:xlink="http://www.w3.org/1999/xlink" x="0px"
	 y="0px" viewBox="0 0 128.6 200" style="enable-background:new 0 0 128.6 200;" xml:space="preserve">
<style type="text/css">
	.st0{fill:#A9A9A9;}
</style>
<g>
	<path class="st0" d="M0,153.5h17.4c3.4,0,6,0.1,7.7,0.4s3.2,0.9,4.5,1.8c1.3,0.9,2.4,2.1,3.3,3.6c0.9,1.5,1.3,3.2,1.3,5.1
		c0,2-0.5,3.9-1.6,5.6c-1.1,1.7-2.6,3-4.5,3.8c2.6,0.8,4.7,2.1,6.1,3.9s2.1,4,2.1,6.5c0,2-0.5,3.9-1.4,5.8c-0.9,1.9-2.2,3.4-3.8,4.5
		c-1.6,1.1-3.6,1.8-5.9,2.1c-1.5,0.2-5,0.3-10.6,0.3H0V153.5z M8.8,160.8v10h5.7c3.4,0,5.5-0.1,6.4-0.1c1.5-0.2,2.7-0.7,3.5-1.6
		s1.3-2,1.3-3.4c0-1.3-0.4-2.4-1.1-3.3s-1.8-1.3-3.3-1.5c-0.9-0.1-3.4-0.1-7.5-0.1L8.8,160.8L8.8,160.8z M8.8,178v11.6h8.1
		c3.2,0,5.2-0.1,6-0.3c1.3-0.2,2.4-0.8,3.2-1.7c0.8-0.9,1.2-2.1,1.2-3.7c0-1.3-0.3-2.4-0.9-3.3c-0.6-0.9-1.5-1.6-2.7-2
		c-1.2-0.4-3.8-0.6-7.8-0.6L8.8,178L8.8,178z"/>
</g>
<g>
	<path class="st0" d="M42.1,153.5h17.4c3.4,0,6,0.1,7.7,0.4s3.2,0.9,4.5,1.8c1.3,0.9,2.4,2.1,3.3,3.6c0.9,1.5,1.3,3.2,1.3,5.1
		c0,2-0.5,3.9-1.6,5.6c-1.1,1.7-2.6,3-4.5,3.8c2.6,0.8,4.7,2.1,6.1,3.9s2.1,4,2.1,6.5c0,2-0.5,3.9-1.4,5.8c-0.9,1.9-2.2,3.4-3.8,4.5
		s-3.6,1.8-5.9,2.1c-1.5,0.2-5,0.3-10.6,0.3H42.1V153.5z M50.9,160.8v10h5.7c3.4,0,5.5-0.1,6.4-0.1c1.5-0.2,2.7-0.7,3.5-1.6
		s1.3-2,1.3-3.4c0-1.3-0.4-2.4-1.1-3.3c-0.7-0.8-1.8-1.3-3.3-1.5c-0.9-0.1-3.4-0.1-7.5-0.1L50.9,160.8L50.9,160.8z M50.9,178v11.6
		H59c3.2,0,5.2-0.1,6-0.3c1.3-0.2,2.4-0.8,3.2-1.7c0.8-0.9,1.2-2.1,1.2-3.7c0-1.3-0.3-2.4-0.9-3.3c-0.6-0.9-1.5-1.6-2.7-2
		c-1.2-0.4-3.8-0.6-7.8-0.6L50.9,178L50.9,178z"/>
</g>
<g>
	<path class="st0" d="M83.4,153.5h17.4c3.4,0,6,0.1,7.7,0.4s3.2,0.9,4.5,1.8c1.3,0.9,2.4,2.1,3.3,3.6c0.9,1.5,1.3,3.2,1.3,5.1
		c0,2-0.5,3.9-1.6,5.6c-1.1,1.7-2.6,3-4.5,3.8c2.6,0.8,4.7,2.1,6.1,3.9s2.1,4,2.1,6.5c0,2-0.5,3.9-1.4,5.8c-0.9,1.9-2.2,3.4-3.8,4.5
		s-3.6,1.8-5.9,2.1c-1.5,0.2-5,0.3-10.6,0.3H83.4V153.5z M92.2,160.8v10H98c3.4,0,5.5-0.1,6.4-0.1c1.5-0.2,2.7-0.7,3.5-1.6
		s1.3-2,1.3-3.4c0-1.3-0.4-2.4-1.1-3.3c-0.7-0.8-1.8-1.3-3.3-1.5c-0.9-0.1-3.4-0.1-7.5-0.1L92.2,160.8L92.2,160.8z M92.2,178v11.6
		h8.1c3.2,0,5.2-0.1,6-0.3c1.3-0.2,2.4-0.8,3.2-1.7c0.8-0.9,1.2-2.1,1.2-3.7c0-1.3-0.3-2.4-0.9-3.3c-0.6-0.9-1.5-1.6-2.7-2
		c-1.2-0.4-3.8-0.6-7.8-0.6L92.2,178L92.2,178z"/>
</g>
<g>
	<path class="st0" d="M119.5,195.4l0.9-0.1c0.1,0.3,0.2,0.5,0.3,0.7c0.2,0.1,0.4,0.2,0.7,0.2c0.3,0,0.5-0.1,0.7-0.2s0.2-0.3,0.2-0.4
		c0-0.1,0-0.2-0.1-0.3c-0.1-0.1-0.2-0.1-0.3-0.2c-0.1,0-0.4-0.1-0.8-0.2c-0.5-0.1-0.9-0.3-1.1-0.5c-0.3-0.3-0.4-0.6-0.4-0.9
		c0-0.2,0.1-0.5,0.2-0.7c0.1-0.2,0.3-0.4,0.6-0.5c0.3-0.1,0.6-0.2,0.9-0.2c0.6,0,1,0.1,1.3,0.4c0.3,0.3,0.4,0.6,0.5,1l-0.9,0
		c0-0.2-0.1-0.4-0.3-0.5s-0.3-0.2-0.6-0.2c-0.3,0-0.5,0.1-0.6,0.2c-0.1,0.1-0.1,0.2-0.1,0.3c0,0.1,0,0.2,0.1,0.3
		c0.1,0.1,0.4,0.2,0.9,0.3s0.8,0.2,1,0.3c0.2,0.1,0.4,0.3,0.5,0.5s0.2,0.4,0.2,0.7c0,0.3-0.1,0.5-0.2,0.7c-0.1,0.2-0.4,0.4-0.6,0.5
		c-0.3,0.1-0.6,0.2-1,0.2c-0.6,0-1-0.1-1.4-0.4C119.8,196.3,119.6,195.9,119.5,195.4z"/>
	<path class="st0" d="M124.1,196.9v-4.7h1.4l0.8,3.2l0.8-3.2h1.4v4.7h-0.9v-3.7l-0.9,3.7h-0.9l-0.9-3.7v3.7H124.1z"/>
</g>
<polygon class="st0" points="96.6,124.7 22.7,124.7 20,133 39.6,133 43.7,145.3 75.7,145.3 79.7,133 99.4,133 "/>
<path class="st0" d="M60.4,3c-0.4,2.6-1.1,9.5,5,13.8c5.4,3.8,16.1,11.3,28.2,20.5c12.9,9.8,6.8,27.3,2,33.3
	c-1.7,2.1-17.5,23.3-17.5,23.3s4.5-12-2.2-17.4L47.1,54.5c-7.3-5.8-9.3-20.8-2.4-31.1C49.9,15.8,60.4,3,60.4,3z"/>
<path class="st0" d="M45.1,61.7c0,0-1.6,5.6,3.8,9.2L69.4,87c3.9,3.4,5,12.2,1.4,17.5c-3,4.4-11.6,15.3-11.6,15.3s1.4-5.6-3.6-8.9
	L35.7,95.5c-3.8-3.4-7.2-9.8-1.7-19C36.9,71.5,45.1,61.7,45.1,61.7z"/>
</svg>
