<svg id="Layer_1" data-name="Layer 1" xmlns="http://www.w3.org/2000/svg" viewBox="0 0 155 34"><defs><style>.cls-1{fill:#2babe2;}</style></defs><title>Artboard 1</title><path class="cls-1" d="M38.3,26.6H31.6c.86-.76,1.08-3.62,1.4-8.7l.11-1.19c.22-2.87.32-5.14.32-6.65,0-1.35-.16-2.22-.54-2.49h7.46c1.79,0,5.35.11,5.35,3.79,0,2.48-2.27,4-4.37,4.54,3,.27,5.18,1.73,5.18,4.81,0,3.29-3.13,5.89-8.21,5.89M38,17.41H36.62l-.21,2.81c-.11,1.24-.17,2.27-.17,3.51,0,.17.54.54,1.84.54,2.65,0,4.43-1.35,4.43-3.51,0-2.49-2-3.35-4.54-3.35m.65-7.57a11,11,0,0,0-1.35.06c-.21,1.35-.32,2.59-.43,4,0,0-.06,1.19-.06,1.14h.49c2.43,0,4.65-.87,4.65-3.09,0-1.29-1.08-2.16-3.3-2.16m23.51,17c-1.62,0-1.78,0-3.08-4.54l-.48-1.67a11.67,11.67,0,0,1-4.44.54H51.86l-.37.86c-.38.87-1.35,2.71-1.35,3.79a2.87,2.87,0,0,0,.1.86H45.65c1.3-1.29,3-4.32,5.24-9.24l1.35-2.86a53.62,53.62,0,0,0,2.49-5.9,2.73,2.73,0,0,0-.27-1.08h4.16s1.08,4.11,2.06,7.57l.81,3c1.4,5.08,2.32,7.56,3.46,8.48-1,.11-2.28.16-2.82.16M56.13,12l-3.08,6.65h5L56.13,12M80.24,27.41c-1.4,0-1.73-.22-2.21-.87l-5.36-7.4c-.43-.59-.75-1-1.4-1h-.11l-.11,1.46c-.11,1.95-.21,3.52-.21,4.7s.16,2.06.54,2.38H66.19c.75-.65,1-2.86,1.46-8.7l0-1.19q.33-4.29.33-6.65c0-1.35-.17-2.21-.54-2.48h7c2.33,0,5.46.38,5.46,4.1,0,3.09-2,4.76-4.59,5.52a10.31,10.31,0,0,1,1,1.13l3.89,5.14c2.43,3.19,2.6,3.35,3.46,3.78-1.08.11-2.54.11-3.46.11M73.32,9.84a11.56,11.56,0,0,0-1.46.06c-.16.81-.27,2.21-.43,4.48l-.11,1.35a4.25,4.25,0,0,0,.87.06c2.38,0,4-1.46,4-3.62-.06-1.46-1.08-2.33-2.87-2.33M90.4,27c-4.92,0-7.78-4.06-7.78-8.6,0-6.32,3.46-11.24,10-11.24,2,0,3,.38,4.7.38l-.49,4.86a5,5,0,0,0-4.54-2.86c-4.05,0-5.72,4.43-5.72,8.16,0,4.11,2.32,6.38,5.35,6.38,1.67,0,3.13-.43,5.56-2.16A6.8,6.8,0,0,1,90.4,27M124,26.81c-1.62,0-1.73,0-3.08-4.54l-.49-1.67a11.61,11.61,0,0,1-4.43.54h-2.27l-.38.86A11.22,11.22,0,0,0,112,25.79a5.79,5.79,0,0,0,.11.86H98.62c.76-.86,1-3.67,1.4-8.7l.11-1.19c.22-2.92.33-5.13.33-6.7A4.2,4.2,0,0,0,100,7.57h5.24c-.75.54-1,3.62-1.35,8.7l-.11,1.19c-.1,1.9-.38,3.84-.38,5.68,0,.86.33,1.08,1.25,1.08,3.19,0,3.94,0,5.4-1,.92-1.62,1.89-3.67,2.92-5.78l1.35-2.86a40.23,40.23,0,0,0,2.49-5.9,2.73,2.73,0,0,0-.27-1.08h4.16s1.68,6.22,2.06,7.57l.81,3c1.4,5.08,2.27,7.56,3.51,8.48-1.08.11-2.49.16-3,.16M118,12l-3.08,6.65h5L118,12m18,4.33a27.67,27.67,0,0,0-1.35,2.49,25.69,25.69,0,0,0-.43,5.35,4.38,4.38,0,0,0,.54,2.43h-5.19c.92-.87,1.3-6.16,1.24-7.84a40.61,40.61,0,0,0-3.08-7.51c-.92-1.73-2-3.41-2.65-3.73,1.19-.11,2.65-.16,3.35-.16,1.3,0,1.63.16,2.44,1.89,1.24,2.81,2.16,4.92,2.7,6.48,1.3-2.05,2.22-3.45,3.4-5.4a3.62,3.62,0,0,0,.54-1.62,1.78,1.78,0,0,0-.27-1.14h5.14c-1,.16-5.46,7.19-6.38,8.76m17.24-4.27a5.16,5.16,0,0,0-4.37-2.54c-1.63,0-3.09.65-3.09,2.38,0,1.46,1.79,2.43,3.68,3.67,2.05,1.3,4.16,2.87,4.16,5.62,0,3.57-3.46,5.79-7.51,5.79a15.58,15.58,0,0,1-5.35-1l.32-4.76a5.74,5.74,0,0,0,5.3,3.41c2,0,3.51-1,3.51-2.65,0-1.41-1.19-2.32-2.7-3.19-3.14-1.89-5.08-3.4-5.08-6.11,0-4.05,3.4-5.46,7-5.46,2.06,0,3.35.38,4.65.38Z"/><path class="cls-1" d="M24.89,15.09a14.62,14.62,0,0,1-2.64,8.54c-.06.05-.11.05-.22,0a10.3,10.3,0,0,1-2-2.65.52.52,0,0,0-.21.48,8.21,8.21,0,0,0,1.19,3.25c.27.43-.17.75-.54.54A12.63,12.63,0,0,1,17,20.49a.68.68,0,0,0-.27.54,11.12,11.12,0,0,0,2.87,5.41.1.1,0,0,1,0,.16,20.71,20.71,0,0,1-6.81,3.94A19.78,19.78,0,0,1,6,26.6c-.06-.06-.06-.11,0-.16A11.93,11.93,0,0,0,8.84,21a.68.68,0,0,0-.27-.54,13.73,13.73,0,0,1-3.51,4.76c-.44.27-.81-.06-.54-.54a8.37,8.37,0,0,0,1.19-3.25A.68.68,0,0,0,5.49,21a11.61,11.61,0,0,1-1.95,2.65.17.17,0,0,1-.21,0,14.48,14.48,0,0,1-2.7-8.54c0-5.73,2.43-7.52,4.54-7.52,1.4,0,2.32.76,2.32,1.73a1.17,1.17,0,0,1-.81,1.14,2,2,0,0,0,1.78.7c1.46-.05,2.38-.92,2.43-2.86A1.58,1.58,0,0,0,9.11,6.6c-.54,0-.76.11-.86.27-.44-.65.27-1.95,2.16-1.95h.43a.88.88,0,0,1,.7-.32,7.17,7.17,0,0,1,1.79.16c1.19.38,1.4,1.35,1.51,3.3s.81,3,2.27,3.08a1.9,1.9,0,0,0,1.78-.7,1.18,1.18,0,0,1-.81-1.14c0-1,.92-1.73,2.33-1.73C22.46,7.57,24.89,9.36,24.89,15.09Z"/></svg>