<?xml version="1.0" encoding="utf-8"?>
<!-- Generator: Adobe Illustrator 19.2.1, SVG Export Plug-In . SVG Version: 6.00 Build 0)  -->
<svg version="1.1" id="Layer_1" xmlns="http://www.w3.org/2000/svg" xmlns:xlink="http://www.w3.org/1999/xlink" x="0px" y="0px"
	 viewBox="0 0 50 100" style="enable-background:new 0 0 50 100;" xml:space="preserve">
<style type="text/css">
	.st0{fill:#717171;}
	.st1{fill:#0076B6;}
</style>
<g>
	<path class="st0" d="M35.8,4H14.2C11.9,4,10,5.9,10,8.2l0,0v33.6c0,2.3,1.9,4.2,4.2,4.2h0h21.6c2.3,0,4.2-1.9,4.2-4.2c0,0,0,0,0,0
		V8.2C40,5.9,38.1,4,35.8,4L35.8,4z M14.2,6h21.6C37,6,38,7,38,8.2c0,0,0,0,0,0V16H12V8.2C12,7,13,6,14.2,6z M35.8,44H14.2
		C13,44,12,43,12,41.8l0,0V18h26v23.8C38,43,37,44,35.8,44L35.8,44z"/>
	<g>
		<path class="st0" d="M17,22h2c0.6,0,1,0.4,1,1v2c0,0.6-0.4,1-1,1h-2c-0.6,0-1-0.4-1-1v-2C16,22.4,16.4,22,17,22z"/>
		<path class="st0" d="M24,22h2c0.6,0,1,0.4,1,1v2c0,0.6-0.4,1-1,1h-2c-0.6,0-1-0.4-1-1v-2C23,22.4,23.4,22,24,22z"/>
		<path class="st0" d="M31,22h2c0.6,0,1,0.4,1,1v2c0,0.6-0.4,1-1,1h-2c-0.6,0-1-0.4-1-1v-2C30,22.4,30.4,22,31,22z"/>
		<path class="st0" d="M17,29h2c0.6,0,1,0.4,1,1v2c0,0.6-0.4,1-1,1h-2c-0.6,0-1-0.4-1-1v-2C16,29.4,16.4,29,17,29z"/>
		<path class="st0" d="M24.3,28.9h2c0.6,0,1,0.4,1,1v2c0,0.6-0.4,1-1,1h-2c-0.6,0-1-0.4-1-1v-2C23.3,29.4,23.8,28.9,24.3,28.9z"/>
		<path class="st0" d="M31,29h2c0.6,0,1,0.4,1,1v9c0,0.6-0.4,1-1,1h-2c-0.6,0-1-0.4-1-1v-9C30,29.4,30.4,29,31,29z"/>
		<path class="st0" d="M17,36h2c0.6,0,1,0.4,1,1v2c0,0.6-0.4,1-1,1h-2c-0.6,0-1-0.4-1-1v-2C16,36.4,16.4,36,17,36z"/>
		<path class="st0" d="M24,36h2c0.6,0,1,0.4,1,1v2c0,0.6-0.4,1-1,1h-2c-0.6,0-1-0.4-1-1v-2C23,36.4,23.4,36,24,36z"/>
	</g>
</g>
<g>
	<path class="st1" d="M35.8,54H14.2c-2.3,0-4.2,1.9-4.2,4.2l0,0v33.6c0,2.3,1.9,4.2,4.2,4.2h0h21.6c2.3,0,4.2-1.9,4.2-4.2
		c0,0,0,0,0,0V58.2C40,55.9,38.1,54,35.8,54L35.8,54z M14.2,56h21.6c1.2,0,2.2,1,2.2,2.2c0,0,0,0,0,0V66H12v-7.8
		C12,57,13,56,14.2,56z M35.8,94H14.2C13,94,12,93,12,91.8l0,0V68h26v23.8C38,93,37,94,35.8,94L35.8,94z"/>
	<g>
		<path class="st1" d="M17,72h2c0.6,0,1,0.4,1,1v2c0,0.6-0.4,1-1,1h-2c-0.6,0-1-0.4-1-1v-2C16,72.4,16.4,72,17,72z"/>
		<path class="st1" d="M24,72h2c0.6,0,1,0.4,1,1v2c0,0.6-0.4,1-1,1h-2c-0.6,0-1-0.4-1-1v-2C23,72.4,23.4,72,24,72z"/>
		<path class="st1" d="M31,72h2c0.6,0,1,0.4,1,1v2c0,0.6-0.4,1-1,1h-2c-0.6,0-1-0.4-1-1v-2C30,72.4,30.4,72,31,72z"/>
		<path class="st1" d="M17,79h2c0.6,0,1,0.4,1,1v2c0,0.6-0.4,1-1,1h-2c-0.6,0-1-0.4-1-1v-2C16,79.4,16.4,79,17,79z"/>
		<path class="st1" d="M24.3,78.9h2c0.6,0,1,0.4,1,1v2c0,0.6-0.4,1-1,1h-2c-0.6,0-1-0.4-1-1v-2C23.3,79.4,23.8,78.9,24.3,78.9z"/>
		<path class="st1" d="M31,79h2c0.6,0,1,0.4,1,1v9c0,0.6-0.4,1-1,1h-2c-0.6,0-1-0.4-1-1v-9C30,79.4,30.4,79,31,79z"/>
		<path class="st1" d="M17,86h2c0.6,0,1,0.4,1,1v2c0,0.6-0.4,1-1,1h-2c-0.6,0-1-0.4-1-1v-2C16,86.4,16.4,86,17,86z"/>
		<path class="st1" d="M24,86h2c0.6,0,1,0.4,1,1v2c0,0.6-0.4,1-1,1h-2c-0.6,0-1-0.4-1-1v-2C23,86.4,23.4,86,24,86z"/>
	</g>
</g>
</svg>
