<?xml version="1.0" encoding="utf-8"?>
<!-- Generator: Adobe Illustrator 19.2.1, SVG Export Plug-In . SVG Version: 6.00 Build 0)  -->
<svg version="1.1" id="Layer_1" xmlns="http://www.w3.org/2000/svg" xmlns:xlink="http://www.w3.org/1999/xlink" x="0px" y="0px"
	 viewBox="0 0 50 100" style="enable-background:new 0 0 50 100;" xml:space="preserve">
<style type="text/css">
	.st0{fill:#717171;}
	.st1{fill:#0076B6;}
</style>
<g>
	<path class="st0" d="M17,33h-7c-0.6,0-1-0.4-1-1s0.4-1,1-1h7c0.6,0,1,0.4,1,1S17.6,33,17,33z"/>
	<path class="st0" d="M39.1,33H24.9c-0.6,0-1-0.4-1-1s0.4-1,1-1h14.2c0.6,0,1,0.4,1,1S39.7,33,39.1,33z"/>
	<path class="st0" d="M17,25h-7c-0.6,0-1-0.4-1-1v-4c0-0.6,0.4-1,1-1h7c0.6,0,1,0.4,1,1v4C18,24.6,17.6,25,17,25z M11,23h5v-2h-5V23
		z"/>
	<path class="st0" d="M41.8,39H8.2C5.9,39,4,37.1,4,34.8l0,0V15.2C4,12.9,5.9,11,8.2,11h0h33.6c2.3,0,4.2,1.9,4.2,4.2c0,0,0,0,0,0
		v19.6C46,37.1,44.1,39,41.8,39z M8.2,13C7,13,6,14,6,15.2l0,0v19.6C6,36,7,37,8.2,37h33.6c1.2,0,2.2-1,2.2-2.2l0,0V15.2
		c0-1.2-1-2.2-2.2-2.2l0,0H8.2z"/>
</g>
<g>
	<path class="st1" d="M17,83h-7c-0.6,0-1-0.4-1-1s0.4-1,1-1h7c0.6,0,1,0.4,1,1S17.6,83,17,83z"/>
	<path class="st1" d="M39.1,83H24.9c-0.6,0-1-0.4-1-1s0.4-1,1-1h14.2c0.6,0,1,0.4,1,1S39.7,83,39.1,83z"/>
	<path class="st1" d="M17,75h-7c-0.6,0-1-0.4-1-1v-4c0-0.6,0.4-1,1-1h7c0.6,0,1,0.4,1,1v4C18,74.6,17.6,75,17,75z M11,73h5v-2h-5V73
		z"/>
	<path class="st1" d="M41.8,89H8.2C5.9,89,4,87.1,4,84.8l0,0V65.2C4,62.9,5.9,61,8.2,61h0h33.6c2.3,0,4.2,1.9,4.2,4.2c0,0,0,0,0,0
		v19.6C46,87.1,44.1,89,41.8,89z M8.2,63C7,63,6,64,6,65.2l0,0v19.6C6,86,7,87,8.2,87h33.6c1.2,0,2.2-1,2.2-2.2l0,0V65.2
		c0-1.2-1-2.2-2.2-2.2l0,0H8.2z"/>
</g>
</svg>
