<?xml version="1.0" encoding="utf-8"?>
<!-- Generator: Adobe Illustrator 19.2.1, SVG Export Plug-In . SVG Version: 6.00 Build 0)  -->
<svg version="1.1" id="Layer_1" xmlns="http://www.w3.org/2000/svg" xmlns:xlink="http://www.w3.org/1999/xlink" x="0px" y="0px"
	 viewBox="0 0 187.1 200" style="enable-background:new 0 0 187.1 200;" xml:space="preserve">
<style type="text/css">
	.st0{fill:#A9A9A9;}
</style>
<g>
	<polygon class="st0" points="18.7,79.9 18.7,91.9 39.2,91.9 39.2,107.7 18.7,107.7 18.7,135.8 0,135.8 0,64.1 41.3,64.1 41.3,79.9 
			"/>
	<path class="st0" d="M44.8,64.2v71.7h18.5v-15.9v-40h4.4c12.1,0,20.5,7.2,20.5,20.1c0,14-9.4,19.9-20.6,19.9h-4.2v15.9h7.9
		c19.8,0,36.4-15.7,36.4-35.8c0-20.3-16.4-35.8-36.4-35.8L44.8,64.2L44.8,64.2z"/>
	<polygon class="st0" points="110.2,135.8 128.9,135.8 128.9,64.1 110.2,64.1 	"/>
	<path class="st0" d="M186.2,88.1c-3.8-5.1-10-7.9-16.4-7.9c-11.4,0-19.1,8.7-19.1,19.9c0,11.4,7.9,19.4,19.4,19.4
		c6.1,0,12.2-3,16.1-7.5v22.4c-6.1,1.8-10.7,3.3-16.4,3.3c-10,0-19.6-3.8-26.9-10.7c-7.9-7.2-11.5-16.4-11.5-27.1
		c0-9.8,3.8-19.2,10.7-26.2c7-7.1,17.1-11.5,27.3-11.5c5.9,0,11.4,1.4,17,3.7L186.2,88.1C186.3,88.1,186.2,88.1,186.2,88.1z"/>
</g>
</svg>
