<?xml version="1.0" encoding="utf-8"?>
<!-- Generator: Adobe Illustrator 19.2.1, SVG Export Plug-In . SVG Version: 6.00 Build 0)  -->
<svg version="1.1" id="Layer_1" xmlns="http://www.w3.org/2000/svg" xmlns:xlink="http://www.w3.org/1999/xlink" x="0px" y="0px"
	 viewBox="0 0 50 100" style="enable-background:new 0 0 50 100;" xml:space="preserve">
<style type="text/css">
	.st0{fill:#717171;}
	.st1{fill:#0076B6;}
</style>
<g>
	<path class="st0" d="M43.8,39H6.3c-0.7,0-1.2-0.5-1.2-1.2s0.6-1.2,1.2-1.2l0,0h37.4c0.7,0,1.2,0.5,1.2,1.2S44.4,39,43.8,39z"/>
	<path class="st0" d="M26.3,31c-0.3,0-0.6-0.1-0.8-0.3l-10.7-8.8l-7.7,6.3c-0.5,0.5-1.3,0.4-1.7,0c0,0-0.1-0.1-0.1-0.1
		c-0.4-0.5-0.4-1.3,0.2-1.7c0,0,0,0,0,0l8.5-6.9c0.5-0.4,1.1-0.4,1.6,0l10.7,8.7l16.6-16.7c0.5-0.5,1.3-0.5,1.8,0s0.5,1.3,0,1.7l0,0
		L27.2,30.6C27,30.8,26.6,31,26.3,31z"/>
</g>
<g>
	<path class="st1" d="M43.8,89H6.3c-0.7,0-1.2-0.5-1.2-1.2s0.6-1.2,1.2-1.2l0,0h37.4c0.7,0,1.2,0.5,1.2,1.2S44.4,89,43.8,89z"/>
	<path class="st1" d="M26.3,81c-0.3,0-0.6-0.1-0.8-0.3l-10.7-8.8l-7.7,6.3c-0.5,0.5-1.3,0.4-1.7,0c0,0-0.1-0.1-0.1-0.1
		c-0.4-0.5-0.4-1.3,0.2-1.7c0,0,0,0,0,0l8.5-6.9c0.5-0.4,1.1-0.4,1.6,0l10.7,8.7l16.6-16.7c0.5-0.5,1.3-0.5,1.8,0s0.5,1.3,0,1.7l0,0
		L27.2,80.6C27,80.8,26.6,81,26.3,81z"/>
</g>
</svg>
