<svg id="login_icon" data-name="Layer 1" xmlns="http://www.w3.org/2000/svg" viewBox="0 0 825.2 1000"><defs><style>.cls-1{fill:#00aeef;}</style></defs><title>login_icon</title><path class="cls-1" d="M452.1,474.8a52.9,52.9,0,0,0-7.5-9.6L284,304.7a50.7,50.7,0,0,0-71.7,71.7l79.3,79.3H64.2a50.7,50.7,0,1,0,0,101.4H291.4l-76.5,76.5a50.66,50.66,0,0,0,71.6,71.7L447.1,544.7a58,58,0,0,0,16-38.4A50.43,50.43,0,0,0,452.1,474.8Z"/><path class="cls-1" d="M734.7,10.8,257.9,10a50.71,50.71,0,0,0-51.4,50c-.4,27.77,21.63,51.43,49.3,52.2h458V887.8l-455.9-.5a50.71,50.71,0,0,0-51.4,50c-.4,28,22,51.4,50,51.8H734.7a80.58,80.58,0,0,0,80.5-80.5V91.3A80.58,80.58,0,0,0,734.7,10.8Z"/></svg>