<?xml version="1.0" encoding="utf-8"?>
<!-- Generator: Adobe Illustrator 19.2.1, SVG Export Plug-In . SVG Version: 6.00 Build 0)  -->
<svg version="1.1" id="Layer_1" xmlns="http://www.w3.org/2000/svg" xmlns:xlink="http://www.w3.org/1999/xlink" x="0px" y="0px"
	 viewBox="0 0 187.1 200" style="enable-background:new 0 0 187.1 200;" xml:space="preserve">
<style type="text/css">
	.st0{fill:#A9A9A9;}
	.st1{fill:#FFFFFF;}
</style>
<g>
	<polygon class="st0" points="0.5,39.3 0.5,123.5 119.2,123.5 129,102.3 138.9,123.6 168.6,123.6 168.6,39.3 	"/>
	<path d="M9.5,144.7c-1.4-0.5-2.1-0.8-3.5-0.8c-1.5,0-3.2,0.5-3.2,2.5c0,3.6,8,2.7,8,8.8c0,4-3.1,5.5-6.8,5.5
		c-1.3,0-2.6-0.4-3.8-0.8l0.3-2.5c0.9,0.4,2.5,0.9,3.8,0.9c1.5,0,3.6-0.8,3.6-3c0-4.1-8-3-8-8.8c0-3.3,2.6-5,5.9-5
		c1.2,0,2.7,0.2,4,0.7L9.5,144.7L9.5,144.7z"/>
	<polygon points="21.9,141.9 32.3,141.9 32.3,144.2 24.6,144.2 24.6,149.6 31.6,149.6 31.6,152 24.6,152 24.6,158.1 32.3,158.1 
		32.3,160.4 21.9,160.4 	"/>
	<path d="M55.5,144.9c-1.2-0.7-2.5-1-3.8-1c-4.3,0-7.1,3.1-7.1,7.2c0,4.4,3.1,7.2,7,7.2c1.3,0,3.1-0.3,4-0.9l0.2,2.6
		c-1.4,0.6-3.1,0.7-4.2,0.7c-5.9,0-9.8-3.8-9.8-9.7c0-5.7,4.1-9.5,9.8-9.5c1.4,0,2.8,0.2,4.2,0.8L55.5,144.9L55.5,144.9z"/>
	<path d="M82,152.7c0,5.2-2.6,8-7.2,8c-4.6,0-7.2-2.8-7.2-8v-10.9h2.7v10.5c0,3.6,1.1,6,4.5,6c3.4,0,4.5-2.4,4.5-6v-10.5H82V152.7
		L82,152.7z"/>
	<path d="M98,144.2h2.5c2.4,0,3.7,1.1,3.7,2.7c0,1.8-1.5,2.9-4,2.9H98V144.2L98,144.2z M95.4,160.4H98v-8.2h1.6c1.4,0,2.3,0,3.1,1.8
		l2.8,6.4h3l-3.5-7.4c-0.6-1.1-1-1.5-1.8-1.9v-0.1c2.2-0.4,3.8-2,3.8-4.2c0-4.4-3.5-5-7.2-5h-4.5V160.4L95.4,160.4z"/>
	<polygon points="120.5,141.9 123.2,141.9 123.2,160.4 120.5,160.4 	"/>
	<polygon points="138.2,144.2 132.5,144.2 132.5,141.9 146.6,141.9 146.6,144.2 140.9,144.2 140.9,160.4 138.2,160.4 	"/>
	<polygon points="160.6,152.6 153.3,141.9 156.4,141.9 161.9,150.2 167.3,141.9 170.4,141.9 163.2,152.6 163.2,160.4 160.6,160.4 	
		"/>
	<polygon class="st1" points="153.5,102.3 133.1,55.7 133.1,55.7 133.1,55.7 133.1,55.7 133.1,55.7 124.9,55.7 105,102.3 
		113.8,102.3 129,65.8 144.8,102.3 	"/>
	<path class="st1" d="M47,82.4c6.4-2.4,9.5-7.7,9.4-13.1c-0.1-8.2-6.5-13.9-15.6-13.9h-16h-3.6v46.8h7.1c0,0,0-34,0-40
		c4.3,0,12.1,0,12.1,0c4,0,8.4,2.1,8.5,7.1c0.1,4.5-3.3,7.3-9,7.5l-0.1,0l-4.3,0l14.4,25.3l8.4,0C58.2,102.3,51.3,90,47,82.4
		L47,82.4z"/>
	<path class="st1" d="M66,67.5c0,9.3,9.3,12,16.4,14c7.5,2.1,10.1,4.5,10.1,8.1c0,6-6.1,7-9.9,7c-5.2,0-9.5-1.5-13.7-4l-3.6,6.1
		c5.3,3.3,10.8,4.8,17.3,4.8c10.8,0,18-5.6,18-14.3c0-9.7-8.8-12.4-16.1-14.5c-7.5-2.1-10.4-3.9-10.4-7.5c0-5.5,6.7-6,9.1-6
		c3.8,0,8.6,1.3,11.4,2.7l3-5.9c-3.8-2-9.7-3.3-14.7-3.3C72.6,54.6,66,59.3,66,67.5L66,67.5z"/>
	<polygon points="173.2,133.7 179.1,133.7 179.1,134.6 176.6,134.6 176.6,141.1 175.7,141.1 175.7,134.6 173.2,134.6 	"/>
	<path d="M186.1,141.1v-4.3c0-0.2,0-1.1,0-1.8h0l-2.1,6.2h-1l-2.1-6.2h0c0,0.7,0,1.6,0,1.8v4.3h-1v-7.4h1.4l2.1,6.2h0l2.1-6.2h1.4
		v7.4H186.1L186.1,141.1z"/>
</g>
</svg>
